<?xml version="1.0"?>
<svg xmlns="http://www.w3.org/2000/svg" xmlns:xlink="http://www.w3.org/1999/xlink" xmlns:svgjs="http://svgjs.com/svgjs" version="1.1" width="512" height="512" x="0" y="0" viewBox="0 0 448.334 448.334" style="enable-background:new 0 0 512 512" xml:space="preserve" class=""><g>
<g xmlns="http://www.w3.org/2000/svg" id="apple">
	<g>
		<path d="M362.806,278.708c-5.486-12.602-8.572-26.77-8.572-41.686c0-6.328,0.561-12.423,1.621-18.299    c4.52-25.415,18.36-46.409,37.439-60.018c3.43-2.415,7.014-4.598,10.723-6.53c-25.749-40.627-67.708-44.103-80.895-45.49    c-28.68-2.992-69.111,22.367-91.059,22.367h-0.592c-21.946,0-62.379-25.359-91.059-22.367    c-14.276,1.465-59.916,9.555-87.441,53.408c-9.665,15.385-17.114,34.322-20.169,59.315c-1.093,9.009-1.622,18.424-1.498,28.867    c0.125,10.489,0.967,20.597,2.4,30.605c3.087,21.369,8.886,41.461,16.367,59.924c8.323,20.48,18.735,38.857,29.801,54.499    c24.474,34.649,52.186,54.655,67.835,55.014c32.109,0.717,60.009-21.003,83.047-20.442c0.25,0.078,0.498,0.078,0.717,0.063    l0.311-0.031l0.281,0.031c0.219,0.016,0.467,0,0.686-0.078c23.037-0.592,50.969,21.144,83.141,20.427    c15.586-0.358,43.332-20.38,67.803-55.03c11.066-15.641,21.478-34.049,29.739-54.545c1.246-3.055,2.432-6.157,3.615-9.306    C393.107,321.931,373.404,303.196,362.806,278.708z" fill="#f47f7b" data-original="#000000" style="" class=""/>
	</g>
	<g>
		<path d="M288.176,73.384c24.691-29.21,23.724-71.256,21.479-73.11c-2.213-1.886-42.987,5.61-68.27,33.831    c-25.282,28.259-23.722,71.255-21.478,73.125C222.12,109.101,263.519,102.585,288.176,73.384z" fill="#f47f7b" data-original="#000000" style="" class=""/>
	</g>
</g>
<g xmlns="http://www.w3.org/2000/svg">
</g>
<g xmlns="http://www.w3.org/2000/svg">
</g>
<g xmlns="http://www.w3.org/2000/svg">
</g>
<g xmlns="http://www.w3.org/2000/svg">
</g>
<g xmlns="http://www.w3.org/2000/svg">
</g>
<g xmlns="http://www.w3.org/2000/svg">
</g>
<g xmlns="http://www.w3.org/2000/svg">
</g>
<g xmlns="http://www.w3.org/2000/svg">
</g>
<g xmlns="http://www.w3.org/2000/svg">
</g>
<g xmlns="http://www.w3.org/2000/svg">
</g>
<g xmlns="http://www.w3.org/2000/svg">
</g>
<g xmlns="http://www.w3.org/2000/svg">
</g>
<g xmlns="http://www.w3.org/2000/svg">
</g>
<g xmlns="http://www.w3.org/2000/svg">
</g>
<g xmlns="http://www.w3.org/2000/svg">
</g>
</g></svg>
