<svg xmlns="http://www.w3.org/2000/svg" xmlns:xlink="http://www.w3.org/1999/xlink" width="1920" height="1219"><defs><linearGradient id="a" x1=".996" x2="0" y2="1" gradientUnits="objectBoundingBox"><stop offset="0" stop-color="#b12a5b"/><stop offset=".254" stop-color="#cf556c"/><stop offset=".633" stop-color="#ff8c7f"/><stop offset="1" stop-color="#ff8177"/></linearGradient><linearGradient id="c" x1="1" xlink:href="#a"/><linearGradient id="d" x1=".01" y1=".987" x2="1" gradientUnits="objectBoundingBox"><stop offset="0" stop-color="#fff"/><stop offset=".468" stop-color="#fff" stop-opacity=".502"/><stop offset="1" stop-color="#fff" stop-opacity="0"/></linearGradient><clipPath id="b"/></defs><g data-name="Mask Group 1" transform="translate(2 138)" clip-path="url(#b)"><path data-name="Gradient Layer" transform="translate(-2)" fill="url(#a)" d="M0 0h1920v1080H0z"/></g><path data-name="Gradient Layer" fill="url(#c)" d="M0 0h1920v1032H0z"/><g opacity=".41" fill="url(#d)" transform="translate(2 139)"><path data-name="Path 407" d="M1656.973 373.584c1.4 1.495-51.28 53.153-54.028 55.729s-6.112 3.452-7.513 1.958-.309-4.8 2.439-7.371 57.701-51.811 59.102-50.316z"/><path data-name="Path 408" d="M1651.965 118.593c1.784 1.9-65.308 67.693-68.809 70.975s-7.784 4.4-9.569 2.493-.394-6.107 3.107-9.388 73.486-65.984 75.271-64.08z"/><path data-name="Path 409" d="M462.965 606.593c1.784 1.9-65.308 67.693-68.809 70.975s-7.784 4.4-9.569 2.493-.394-6.107 3.107-9.388 73.486-65.984 75.271-64.08z"/><path data-name="Path 410" d="M283.382 402.797c.892.952-32.65 33.842-34.4 35.483s-3.892 2.2-4.784 1.246-.2-3.053 1.553-4.693 36.739-32.984 37.631-32.036z"/><path data-name="Path 411" d="M521.915 170.715c1.062 1.133-38.866 40.285-40.949 42.238s-4.633 2.617-5.694 1.484-.234-3.634 1.849-5.587 43.733-39.268 44.794-38.135z"/><path data-name="Path 412" d="M1552.915 787.715c1.062 1.133-38.866 40.285-40.949 42.238s-4.633 2.617-5.694 1.484-.234-3.634 1.849-5.587 43.733-39.268 44.794-38.135z"/><path data-name="Path 413" d="M314.965 785.593c1.784 1.9-65.308 67.693-68.809 70.975s-7.784 4.4-9.569 2.493-.394-6.107 3.107-9.388 73.486-65.984 75.271-64.08z"/></g><path data-name="Path 1" d="M1699.937 726.218c-2.039 1.19 147.091 0 147.091 0s-28.916-6.3-44.941-8.586c0 0-8.216-12.591-38.264-12.591s-36.413 14.309-36.413 14.309a51.5 51.5 0 00-27.473 6.868z" fill="#c9656c" opacity=".15"/><path data-name="Path 3" d="M1582.574 334.557h269.99s-3.675-10.482-37.653-13.976c0 0-9.182-16.307-46.835-19.8s-56.936 16.889-56.936 16.889-16.529-17.292-51.425-.2c0-.005-47.755-1.551-77.141 17.087z" fill="#c9656c" opacity=".15"/><path data-name="Path 5" d="M1482.574 538.011h185.891s-2.529-5.69-25.924-7.589c0 0-6.322-8.851-32.246-10.748s-39.2 9.167-39.2 9.167-11.38-9.387-35.407-.109c-.002.004-32.88-.836-53.114 9.279z" fill="#c9656c" opacity=".15"/><path data-name="Path 2" d="M107.941 726.336h264.493s-3.6-8.1-36.884-10.8c0 0-9-12.594-45.882-15.292s-55.778 13.043-55.778 13.043-16.194-13.354-50.38-.154c.001.004-46.781-1.191-75.569 13.203z" fill="#b11c27" opacity=".15"/><path data-name="Path 4" d="M51 445.992h380.74s1.32-10.757-15.837-13.59c0 0 1.979-15.287-24.415-19.251 0 0 3.96-29.442-38.932-27.178s-42.229 36.238-42.229 36.238-27.265-22.762-50.986-.263c0 0-24.348-18.537-51.191-3 0 0-49.318-31.867-84.9 1.607 0 0-30.588-7.5-41.826 13.392-.003-.001-10.282-4.835-30.424 12.045z" fill="#b11c27" opacity=".15"/></svg>